<?xml version="1.0" encoding="UTF-8" standalone="no"?>
<!DOCTYPE svg PUBLIC "-//W3C//DTD SVG 1.1//EN" "http://www.w3.org/Graphics/SVG/1.1/DTD/svg11.dtd">
<svg width="100%" height="100%" viewBox="0 0 1051 1051" version="1.1" xmlns="http://www.w3.org/2000/svg" xmlns:xlink="http://www.w3.org/1999/xlink" xml:space="preserve" xmlns:serif="http://www.serif.com/" style="fill-rule:evenodd;clip-rule:evenodd;stroke-linejoin:round;stroke-miterlimit:2;">
    <g transform="matrix(2.70936,0.823884,-0.823884,2.70936,302.646,160.486)">
        <path d="M52.505,0.13C69.648,0.13 218.771,17.632 218.771,17.632L218.771,70.137L78.757,70.137C61.798,70.137 0,52.495 0,35.134C0,18.568 35.362,0.13 52.505,0.13Z" style="fill:rgb(204,207,209);fill-rule:nonzero;"/>
    </g>
    <g transform="matrix(2.70936,0.823884,-0.823884,2.70936,302.646,160.486)">
        <path d="M78.758,70.137L218.772,70.137L218.772,59.916C204.622,45.267 174.729,35.134 140.014,35.134C100.425,35.134 67.014,48.287 56.207,66.331C65.666,68.711 73.997,70.137 78.758,70.137Z" style="fill:rgb(217,220,221);fill-rule:nonzero;"/>
    </g>
    <g transform="matrix(2.70936,0.823884,-0.823884,2.70936,302.646,160.486)">
        <path d="M157.515,70.137L218.771,70.137L218.771,17.632C218.771,17.632 190.69,14.342 157.515,10.605L157.515,70.137Z" style="fill:rgb(183,186,188);fill-rule:nonzero;"/>
    </g>
    <g transform="matrix(2.70936,0.823884,-0.823884,2.70936,302.646,160.486)">
        <path d="M157.515,70.137L218.771,70.137L218.771,59.916C207.08,47.814 184.555,38.888 157.515,36.122L157.515,70.137Z" style="fill:rgb(194,196,197);fill-rule:nonzero;"/>
    </g>
    <g transform="matrix(2.01211,1.9927,-1.9927,2.01211,522.268,-70.6145)">
        <path d="M33.008,190.768L190.908,32.868C211.306,12.461 244.384,12.461 264.791,32.868C285.198,53.266 285.198,86.353 264.791,106.76L106.9,264.66C86.493,285.067 53.415,285.067 33.008,264.66C12.601,244.253 12.601,211.175 33.008,190.768Z" style="fill:rgb(238,47,38);fill-rule:nonzero;"/>
    </g>
    <g transform="matrix(2.83178,-0.0217335,0.0217335,2.83178,-411.139,-248.765)">
        <g transform="matrix(1,0,0,1,260.81,259.119)">
            <path d="M0,-18.397C0.015,-12.557 0.035,-6.716 0.06,-0.876C0.062,-0.275 -0.194,0 -0.79,-0.029C-0.949,-0.037 -1.105,-0.024 -1.264,-0.024C-9.435,-0.024 -17.608,-0.046 -25.775,-0.004C-26.906,0 -27.246,-0.313 -27.238,-1.468C-27.197,-7.111 -27.246,-12.753 -27.261,-18.397L0,-18.397Z" style="fill:white;"/>
        </g>
        <g transform="matrix(1,0,0,1,285.705,259.138)">
            <path d="M0,-18.416C1.696,-17.244 3.619,-16.292 5.052,-14.854C8.736,-11.16 10.388,-6.495 10.795,-1.345C10.868,-0.391 10.57,0 9.556,-0.003C1.072,-0.03 -7.411,-0.028 -15.894,-0.006C-16.893,-0.003 -17.25,-0.329 -17.238,-1.382C-17.186,-6.589 -17.213,-11.798 -17.221,-17.007C-17.221,-17.477 -17.275,-17.946 -17.307,-18.416L0,-18.416Z" style="fill:white;"/>
        </g>
        <g transform="matrix(1,0,0,1,225.963,259.194)">
            <path d="M0,-18.472C-0.015,-12.863 -0.066,-7.256 -0.019,-1.647C-0.009,-0.472 -0.306,-0.075 -1.519,-0.079C-9.933,-0.124 -18.348,-0.099 -26.76,-0.104C-27.298,-0.104 -27.849,0 -27.928,-0.872C-28.456,-6.642 -23.64,-15.22 -18.426,-17.717C-17.896,-17.972 -17.363,-18.221 -16.831,-18.472L0,-18.472Z" style="fill:white;"/>
        </g>
        <g transform="matrix(1,0,0,1,282.425,266.632)">
            <path d="M0,18.36C-4.22,18.36 -8.443,18.335 -12.664,18.378C-13.618,18.385 -13.963,18.124 -13.953,17.118C-13.908,11.789 -13.916,6.464 -13.948,1.137C-13.953,0.26 -13.688,-0.025 -12.803,-0.025C-4.203,0.005 4.397,0 13,-0.025C13.772,-0.025 14.065,0.243 14.065,0.996C14.053,6.441 14.051,11.886 14.068,17.329C14.07,18.178 13.693,18.378 12.903,18.367C8.603,18.335 4.303,18.353 0,18.353L0,18.36Z" style="fill:white;"/>
        </g>
        <g transform="matrix(1,0,0,1,225.857,284.907)">
            <path d="M0,-18.193L0,0.008C-0.436,0.034 -0.819,0.073 -1.204,0.073C-9.615,0.073 -18.027,0.051 -26.438,0.098C-27.563,0.107 -27.833,-0.25 -27.823,-1.314C-27.774,-6.568 -27.778,-11.818 -27.811,-17.072C-27.816,-17.991 -27.562,-18.3 -26.605,-18.295C-18.075,-18.263 -9.544,-18.277 -1.014,-18.275C-0.706,-18.275 -0.397,-18.228 0,-18.193" style="fill:white;"/>
        </g>
        <g transform="matrix(1,0,0,1,233.654,292.716)">
            <path d="M0,18.077L0,0.017C0.444,-0.01 0.861,-0.06 1.281,-0.06C9.497,-0.065 17.714,-0.042 25.934,-0.087C27.015,-0.094 27.258,0.273 27.25,1.266C27.216,6.481 27.23,11.698 27.241,16.912C27.241,17.642 27.233,18.171 26.207,18.166C17.677,18.13 9.141,18.146 0.606,18.144C0.452,18.144 0.295,18.109 0,18.077" style="fill:white;"/>
        </g>
        <g transform="matrix(1,0,0,1,268.554,292.665)">
            <path d="M0,18.215L0,0.083C0.402,0.048 0.78,-0.009 1.158,-0.009C9.646,-0.012 18.139,0.011 26.632,-0.028C27.693,-0.034 28.051,0.297 27.952,1.323C27.308,7.886 25.048,13.565 19.247,17.316C18.229,17.974 17.136,18.249 15.894,18.237C11.037,18.183 6.175,18.215 1.322,18.215L0,18.215Z" style="fill:white;"/>
        </g>
        <g transform="matrix(1,0,0,1,225.855,311.078)">
            <path d="M0,-18.33L0,-0.275C-0.421,-0.253 -0.839,-0.216 -1.256,-0.216C-5.719,-0.213 -10.19,-0.384 -14.642,-0.156C-17.732,0 -19.979,-1.323 -21.958,-3.331C-25.165,-6.585 -26.837,-10.627 -27.563,-15.088C-27.731,-16.122 -27.768,-17.175 -27.876,-18.33L0,-18.33Z" style="fill:white;"/>
        </g>
    </g>
</svg>
